<?xml version="1.0" encoding="utf-8"?>
<!-- Generator: Adobe Illustrator 16.0.0, SVG Export Plug-In . SVG Version: 6.00 Build 0)  -->
<!DOCTYPE svg PUBLIC "-//W3C//DTD SVG 1.1//EN" "http://www.w3.org/Graphics/SVG/1.1/DTD/svg11.dtd">
<svg version="1.1" id="mark.js_logo" xmlns="http://www.w3.org/2000/svg" xmlns:xlink="http://www.w3.org/1999/xlink" x="0px"
	 y="0px" width="666.98px" height="234.852px" viewBox="0 0 666.98 234.852" enable-background="new 0 0 666.98 234.852"
	 xml:space="preserve">
<g id="underline">
	<polygon fill="#F7DE28" points="414.013,216.647 3.328,216.647 0,230.387 414.013,230.387 	"/>
	<polygon fill="#F7DE28" points="478.112,216.647 478.112,230.387 612.406,230.387 615.015,216.647 	"/>
</g>
<g id="lettering_1_">
	<path fill="#34495E" d="M27.018,117.837c4.534-1.361,9.636-2.636,15.307-3.827c5.668-1.19,11.905-1.786,18.708-1.786
		c5.103,0,9.381,0.739,12.841,2.211c3.457,1.475,6.378,3.571,8.759,6.293c3.287-1.927,7.284-3.827,11.991-5.698
		c4.704-1.871,10.061-2.807,16.072-2.807c5.214,0,9.636,0.739,13.266,2.211c3.627,1.475,6.575,3.516,8.844,6.123
		c2.267,2.61,3.912,5.698,4.932,9.27c1.021,3.571,1.531,7.457,1.531,11.65c0,4.65-0.625,9.583-1.871,14.797l-11.225,46.771h-20.556
		l10.521-44.561c0.566-2.153,1.105-4.507,1.616-7.059c0.51-2.551,0.766-5.129,0.766-7.738c0-1.813-0.199-3.598-0.595-5.357
		c-0.399-1.757-1.105-3.258-2.126-4.507c-1.021-1.246-2.411-2.267-4.167-3.062c-1.759-0.792-3.997-1.19-6.718-1.19
		c-2.95,0-5.841,0.569-8.674,1.701c-2.835,1.135-5.217,2.326-7.144,3.572c0.452,2.155,0.681,4.48,0.681,6.973
		c0,2.27-0.17,4.651-0.51,7.144c-0.34,2.495-0.795,4.932-1.361,7.313l-11.241,46.771H56.101l10.545-44.561
		c0.566-2.041,1.105-4.393,1.616-7.059c0.51-2.663,0.765-5.299,0.765-7.908c0-3.742-0.879-7-2.636-9.78
		c-1.759-2.777-5.076-4.167-9.949-4.167c-2.27,0-4.422,0.144-6.463,0.425c-2.041,0.284-3.912,0.654-5.612,1.105L27.31,203.047H6.608
		L27.018,117.837z"/>
	<path fill="#34495E" d="M227.539,168.521c-0.34,1.249-0.68,3.29-1.02,6.123c-0.34,2.836-0.511,5.501-0.511,7.994
		c0,3.29,0.282,6.493,0.851,9.61c0.566,3.12,1.473,6.266,2.721,9.439l-18.368,2.722c-1.36-2.722-2.439-5.613-3.231-8.674
		c-2.835,2.496-6.322,4.736-10.459,6.718c-4.141,1.982-8.818,2.976-14.032,2.976c-5.331,0-9.894-0.879-13.691-2.636
		c-3.8-1.757-6.888-4.194-9.269-7.313c-2.381-3.117-4.141-6.774-5.272-10.97c-1.135-4.193-1.701-8.73-1.701-13.606
		c0-8.275,1.472-15.987,4.422-23.13c2.947-7.144,7.058-13.322,12.331-18.539c5.272-5.214,11.536-9.325,18.794-12.331
		c7.255-3.003,15.193-4.507,23.811-4.507c4.422,0,8.87,0.369,13.351,1.105c4.479,0.739,8.985,2.126,13.521,4.167L227.539,168.521z
		 M216.357,130.083c-2.158-0.452-4.598-0.68-7.322-0.68c-5.108,0-9.819,1.105-14.132,3.316c-4.313,2.211-8.031,5.161-11.151,8.844
		c-3.12,3.686-5.533,7.909-7.234,12.671c-1.703,4.762-2.554,9.753-2.554,14.967c0,2.61,0.226,5.046,0.68,7.313
		c0.452,2.27,1.217,4.252,2.296,5.953c1.076,1.701,2.522,3.062,4.337,4.082c1.813,1.021,4.138,1.531,6.973,1.531
		c3.627,0,6.83-0.766,9.609-2.296c2.777-1.531,5.357-3.598,7.739-6.208c0.111-2.947,0.367-5.725,0.765-8.334
		c0.396-2.607,0.936-5.214,1.616-7.824L216.357,130.083z"/>
	<path fill="#34495E" d="M310.538,132.294c-2.274-0.792-4.723-1.416-7.337-1.871c-2.618-0.452-5.689-0.68-9.217-0.68
		c-1.935,0-3.98,0.143-6.141,0.425c-2.164,0.285-3.984,0.654-5.462,1.105l-17.085,71.773h-20.58l20.41-84.869
		c4.762-1.587,9.92-2.977,15.477-4.167c5.555-1.19,11.566-1.786,18.029-1.786c1.36,0,2.891,0.085,4.592,0.255
		s3.373,0.369,5.018,0.595c1.643,0.229,3.173,0.51,4.592,0.851c1.416,0.34,2.637,0.739,3.656,1.19L310.538,132.294z"/>
	<path fill="#34495E" d="M346.281,147.949c3.511-2.721,7.08-5.583,10.705-8.589c3.625-3.005,7.053-6.011,10.281-9.017
		c3.229-3.006,6.262-5.897,9.094-8.677c2.834-2.78,5.268-5.302,7.309-7.571h23.641c-2.721,3.176-5.838,6.521-9.352,10.035
		c-3.514,3.516-7.196,7.032-11.05,10.545c-3.853,3.516-7.821,6.973-11.899,10.375c-4.082,3.402-8.047,6.633-11.9,9.695
		c2.84,2.944,5.682,6.396,8.521,10.356c2.842,3.962,5.561,8.1,8.156,12.416c2.597,4.315,4.97,8.687,7.122,13.109
		c2.149,4.424,3.903,8.565,5.265,12.421h-22.695c-1.592-3.742-3.354-7.539-5.285-11.393c-1.936-3.854-4.037-7.625-6.309-11.308
		c-2.275-3.683-4.662-7.141-7.162-10.372c-2.501-3.231-5.002-6.094-7.502-8.589l-10.205,41.661h-20.439l30.785-128.58l21.43-3.401
		L346.281,147.949z"/>
	<path fill="#34495E" d="M420.745,178.215c3.628,0,6.575,1.021,8.845,3.062c2.266,2.041,3.4,5.046,3.4,9.014
		c0,2.27-0.424,4.337-1.275,6.208c-0.85,1.871-1.955,3.46-3.316,4.762c-1.36,1.305-2.92,2.296-4.677,2.976
		c-1.759,0.681-3.546,1.021-5.357,1.021c-3.63,0-6.548-0.994-8.759-2.976c-2.211-1.983-3.316-4.959-3.316-8.929
		c0-4.762,1.472-8.475,4.422-11.14C413.658,179.549,417.004,178.215,420.745,178.215z"/>
	<path fill="#34495E" d="M474.83,199.815c-1.475,6.123-3.205,11.395-5.188,15.817c-1.984,4.422-4.422,8.049-7.313,10.885
		c-2.893,2.833-6.293,4.933-10.205,6.293c-3.912,1.361-8.59,2.041-14.031,2.041c-2.607,0-5.3-0.313-8.079-0.936
		c-2.777-0.625-5.13-1.39-7.059-2.296l5.103-16.498c1.36,0.566,2.918,1.076,4.666,1.531c1.754,0.452,3.646,0.68,5.677,0.68
		c4.632,0,8.135-1.616,10.508-4.847c2.37-3.231,4.178-7.568,5.421-13.011l20.5-85.379h20.58L474.83,199.815z M489.457,100.66
		c-3.062,0-5.727-0.906-7.994-2.722c-2.27-1.812-3.401-4.533-3.401-8.164c0-4.193,1.446-7.653,4.337-10.375
		c2.892-2.721,6.208-4.082,9.949-4.082c3.063,0,5.754,0.935,8.08,2.806c2.322,1.871,3.486,4.622,3.486,8.249
		c0,4.196-1.475,7.627-4.422,10.29C496.542,99.328,493.199,100.66,489.457,100.66z"/>
	<path fill="#34495E" d="M525.342,188.59c5.441,0,9.75-0.877,12.926-2.636c3.173-1.757,4.762-4.449,4.762-8.079
		c0-2.947-1.021-5.299-3.061-7.058c-2.041-1.756-5.613-3.827-10.716-6.208c-2.722-1.246-5.245-2.551-7.568-3.912
		c-2.325-1.361-4.337-2.947-6.038-4.762c-1.701-1.813-3.061-3.938-4.082-6.378c-1.02-2.437-1.53-5.357-1.53-8.759
		c0-8.844,3.231-15.873,9.694-21.089c6.463-5.214,15.817-7.824,28.063-7.824c5.669,0,10.742,0.595,15.223,1.786
		c4.479,1.19,7.85,2.411,10.119,3.657l-7.313,15.987c-1.93-1.132-4.707-2.237-8.334-3.316c-3.631-1.076-7.428-1.616-11.396-1.616
		c-1.929,0-3.827,0.17-5.698,0.51c-1.87,0.34-3.545,0.909-5.017,1.701c-1.476,0.794-2.694,1.9-3.657,3.316
		c-0.965,1.419-1.445,3.146-1.445,5.188c0,2.61,1.047,4.736,3.146,6.378c2.097,1.645,5.129,3.375,9.1,5.188
		c3.741,1.701,6.914,3.346,9.523,4.932c2.607,1.589,4.763,3.375,6.464,5.357c1.7,1.985,2.946,4.196,3.741,6.633
		c0.793,2.439,1.191,5.357,1.191,8.759c0,4.196-0.852,8.079-2.552,11.65c-1.7,3.571-4.167,6.633-7.398,9.184
		s-7.229,4.565-11.991,6.038c-4.762,1.472-10.204,2.211-16.326,2.211c-4.197,0-7.968-0.284-11.311-0.85
		c-3.346-0.569-6.267-1.22-8.76-1.956c-2.495-0.736-4.592-1.501-6.293-2.296c-1.7-0.792-3.006-1.472-3.912-2.041l7.314-16.158
		c0.791,0.455,1.955,1.05,3.486,1.786c1.531,0.739,3.287,1.446,5.272,2.126c1.982,0.68,4.193,1.275,6.633,1.786
		C520.039,188.335,522.62,188.59,525.342,188.59z"/>
</g>
<g id="marker">
	<g id="marker_1_">
		<g>
			<g>
				<path fill="#F7DE28" d="M590.82,149.58c0,0,24.811-110.604,38.711-143.115l37.43,7.275
					c0.709,35.35-17.715,147.196-17.715,147.196L590.82,149.58z"/>
				<path fill="#34495E" d="M631.813,6.909l0.766-3.942c0.385-1.973,2.303-3.286,4.293-2.898l25.674,4.988
					c1.99,0.387,3.283,2.324,2.898,4.295l-0.766,3.944L631.813,6.909z"/>
				<path fill="#34495E" d="M647.992,160.691l-55.916-10.869l-1.164,6.389c0,0,5.9,4.482,10.803,15.5
					c4.467,10.039,0.832,22.897,0.832,22.897l9.48,1.844l9.477,1.84c0,0,1.445-13.281,9.348-20.921
					c8.674-8.377,15.822-10.324,15.822-10.324L647.992,160.691z"/>
				<polygon fill="#F7DE28" points="618.639,197.738 605.414,195.169 602.428,210.539 616.168,210.539 				"/>
			</g>
		</g>
	</g>
	<path fill="#F3CF17" d="M648.186,10.092l-28.168,145.162l27.975,5.438h-0.004l1.258,0.245c0,0,18.424-111.847,17.715-147.196
		l-2.283-0.444l0,0L648.186,10.092z"/>
	<path fill="#1F2F40" d="M648.186,10.092l16.492,3.204l0,0l0.766-3.944c0.385-1.972-0.908-3.909-2.898-4.295l-12.896-2.505
		L648.186,10.092z"/>
	<path fill="#1F2F40" d="M620.018,155.253l-0.977,5.022l-7.016,36.178h0.002l9.477,1.84c0,0,1.445-13.281,9.348-20.921
		c8.674-8.377,15.822-10.324,15.822-10.324l1.314-6.356h0.004L620.018,155.253z"/>
	<polygon fill="#F3CF17" points="609.322,210.539 616.168,210.539 618.639,197.738 612.027,196.453 612.025,196.453 	"/>
</g>
</svg>
